<svg id="Capa_1" enable-background="new 0 0 512.003 512.003" height="512" viewBox="0 0 512.003 512.003" width="512" xmlns="http://www.w3.org/2000/svg"><g><path d="m251.644 315.841c-56.378-56.378-69.943-139.352-40.702-208.533 6.843-16.189-10.09-32.151-25.769-24.21-72.496 36.716-122.19 111.926-122.191 198.747-.001 122.547 100.109 222.657 222.656 222.657 86.821 0 162.032-49.695 198.748-122.19 7.941-15.679-8.022-32.612-24.21-25.769-69.18 29.241-152.154 15.676-208.532-40.702z" fill="#fbf1cf"/><path d="m85.981 183.194c-14.721 29.734-22.998 63.226-22.998 98.652 0 13.872 1.295 27.452 3.748 40.637 36.257-4.026 64.456-34.758 64.456-72.088 0-30.392-18.695-56.403-45.206-67.201z" fill="#fae0bd"/><path d="m58.203 229.365c1.185-41.87 30.663-163.474 191.875-176.677-21.541 29.185-47.031 140.721-28.639 176.677-34.157 15.373-70.236 15.373-81.618 15.373s-63.47-5.467-81.618-15.373z" fill="#cde9fa"/><path d="m139.821 187.238c-20.423 0-50.516-2.551-71.539-8.111-7.157 20.275-9.744 38.428-10.078 50.238 18.148 9.906 70.235 15.373 81.618 15.373s47.461 0 81.618-15.373c-5.785-11.309-7.226-30.097-5.817-51.445-21.038 6.399-53.954 9.318-75.802 9.318z" fill="#a2ddfd"/><path d="m139.821 262.238c-26.324 0-67.911-3.358-98.482-12.823-11.871-3.675-18.514-16.278-14.839-28.148 3.675-11.871 16.279-18.514 28.148-14.839 24.12 7.468 60.158 10.811 85.174 10.811s61.054-3.343 85.174-10.811c11.867-3.673 24.473 2.968 28.148 14.839 3.675 11.87-2.969 24.473-14.839 28.148-30.573 9.465-72.16 12.823-98.484 12.823z" fill="#8eafe2"/><path d="m283.798 30.665-3.31 17.728c-.277 1.486-.034 3.022.689 4.349l8.626 15.838c4.472 8.211-.695 18.353-9.967 19.561l-17.883 2.33c-1.499.195-2.884.901-3.923 1.999l-12.397 13.098c-6.427 6.791-17.669 5.01-21.684-3.434l-7.743-16.288c-.649-1.365-1.749-2.465-3.114-3.114l-16.288-7.743c-8.445-4.014-10.225-15.257-3.434-21.684l13.098-12.397c1.098-1.039 1.804-2.425 1.999-3.924l2.331-17.883c1.208-9.272 11.35-14.439 19.561-9.967l15.838 8.626c1.327.723 2.863.966 4.349.689l17.728-3.31c9.192-1.714 17.24 6.334 15.524 15.526z" fill="#8eafe2"/><path d="m223.893 7.509c-6.329.057-12.194 4.682-13.095 11.593l-2.33 17.883c-.195 1.499-.901 2.885-1.999 3.924l-13.099 12.397c-6.791 6.427-5.01 17.67 3.434 21.684l16.288 7.743c1.365.649 2.465 1.749 3.114 3.114l7.743 16.288c4.014 8.445 15.257 10.225 21.684 3.434l10.711-11.317c-30.901-16.403-39.958-63.854-32.451-86.743z" fill="#7c93dd"/><g><g fill="#eda1ab"><ellipse cx="142.253" cy="409.392" rx="27.03" ry="21.525"/><ellipse cx="288.766" cy="409.392" rx="27.03" ry="21.525"/></g></g><path d="m386.962 432.268c-27.541 0-49.867 22.326-49.867 49.867 0 5.511.907 10.807 2.558 15.763 32.821-8.179 62.76-23.64 88.002-44.57-9.035-12.738-23.888-21.06-40.693-21.06z" fill="#fae0bd"/><path d="m129.77 262.088c-14.029-11.622-13.573-34.561-7.753-45.34-22.443-1.174-48.539-4.49-67.371-10.32-11.869-3.674-24.473 2.968-28.148 14.839-3.675 11.87 2.969 24.473 14.839 28.148 26.919 8.334 62.373 11.932 88.433 12.673z" fill="#7c93dd"/><path d="m457.256 349.635c-5.718 2.417-11.634 4.565-17.584 6.386-3.961 1.212-6.189 5.406-4.977 9.367 1.212 3.96 5.403 6.189 9.367 4.977 6.44-1.971 12.844-4.297 19.034-6.914 9.745-4.117 19.388 6.018 14.6 15.472-12.27 24.228-28.98 45.828-49.146 63.755-10.759-11.322-25.782-17.91-41.588-17.91-35.586 0-62.803 32.276-56.449 67.532-69.483 14.757-143.45-5.068-196.854-58.473-29.419-29.42-49.288-65.742-58.062-105.22 29.651-6.42 53.386-29.362 60.717-58.89 21.169.225 47.343-1.679 70.317-5.445 34.776 75.387 114.756 123.478 202.092 113.457 4.115-.472 7.068-4.191 6.596-8.306s-4.183-7.065-8.306-6.596c-79.74 9.153-152.371-34.082-185.148-101.423 6.492-1.4 12.77-3.001 18.657-4.824 15.802-4.893 24.678-21.729 19.786-37.531-4.893-15.801-21.728-24.677-37.531-19.786h-.001c-.952-22.005 2.821-52.076 10.372-82.239 6.836.937 13.428-1.542 17.931-6.3l12.17-12.858 17.556-2.288c14.5-1.889 22.564-17.77 15.584-30.585l-8.469-15.548 3.25-17.403c2.681-14.36-9.918-26.958-24.273-24.273l-17.403 3.249-15.548-8.468c-12.831-6.986-28.699 1.101-30.586 15.584l-2.288 17.557-12.858 12.169c-3.131 2.963-5.215 6.772-6.068 10.875-20.536 7.037-39.157 16.646-55.406 28.61-3.335 2.456-4.049 7.151-1.593 10.486 2.46 3.341 7.157 4.045 10.486 1.593 14.414-10.613 30.899-19.236 49.079-25.697 2.079 3.441 5.134 6.261 8.871 8.037l15.99 7.601c7.441 15.3 7.568 16.778 10.067 19.944-7.237 27.83-13.536 64.968-11.685 93.728-44.658 9.408-98.512 8.419-138.608-.507 4.365-19.429 14.809-50.434 39.529-78.582 2.733-3.112 2.426-7.851-.686-10.584-3.113-2.734-7.851-2.426-10.584.686-26.598 30.286-37.968 63.578-42.776 84.668-15.185-3.566-30.813 5.204-35.496 20.33-4.892 15.802 3.984 32.638 19.786 37.531 5.472 1.694 11.287 3.194 17.294 4.521-6.102 68.15 17.798 134.492 66.638 183.332 111.772 111.773 297.833 79.858 368.025-58.732 11.084-21.883-11.192-45.628-33.821-36.065zm-240.944-273.676-16.288-7.743c-1.727-.821-2.96-2.395-3.25-4.421-.011-.181-.028-.361-.053-.542-.09-1.696.547-3.309 1.805-4.5l13.099-12.398c2.343-2.218 3.863-5.202 4.28-8.401l2.331-17.884c.525-4.026 4.928-6.314 8.537-4.349l15.837 8.625c2.833 1.543 6.139 2.068 9.314 1.476l17.728-3.31c3.993-.745 7.529 2.737 6.775 6.774l-3.31 17.729c-.592 3.171-.068 6.478 1.475 9.313l8.626 15.838c1.947 3.575-.283 8.006-4.35 8.537l-17.884 2.331c-3.199.417-6.183 1.937-8.401 4.281l-12.397 13.098c-2.82 2.982-7.718 2.171-9.463-1.5l-7.742-16.287c-1.386-2.914-3.754-5.281-6.669-6.667zm-172.755 166.291c-7.901-2.446-12.339-10.864-9.893-18.765 1.99-6.429 7.935-10.565 14.338-10.565 3.17 0 4.035.693 10.47 2.396.1.016 33.902 9.423 81.349 9.423 25.731 0 62.632-3.48 87.392-11.146 7.903-2.445 16.32 1.992 18.766 9.893s-1.992 16.319-9.893 18.766c-49.939 15.459-136.342 17.395-192.529-.002zm27.681 21.729c16.893 2.859 34.382 4.514 49.647 5.265-6.757 22.327-25.199 39.507-48.029 44.611-2.491-16.659-2.996-33.151-1.618-49.876zm273.866 224.683c-4.027-25.805 16.047-48.895 41.858-48.895 11.326 0 22.113 4.583 30.005 12.499-22.366 17.254-46.737 29.188-71.863 36.396zm-178.805-112.301c-2.094 2.403-5.117 3.781-8.292 3.781-3.176 0-6.198-1.378-8.292-3.781-2.721-3.123-7.459-3.448-10.582-.727-3.122 2.721-3.448 7.459-.727 10.582 4.943 5.673 12.087 8.926 19.601 8.926 7.513 0 14.657-3.253 19.601-8.926 2.721-3.123 2.396-7.86-.727-10.582-3.123-2.721-7.861-2.396-10.582.727zm115.006 0c-2.094 2.403-5.117 3.781-8.292 3.781-3.176 0-6.198-1.378-8.292-3.781-2.722-3.123-7.459-3.447-10.582-.727-3.123 2.722-3.448 7.459-.727 10.582 4.944 5.672 12.088 8.926 19.601 8.926s14.657-3.253 19.601-8.926c2.721-3.123 2.396-7.86-.727-10.582-3.123-2.721-7.861-2.396-10.582.727zm-76.579 23.964c0 6.352 4.828 11.5 10.783 11.5 5.956 0 10.783-5.149 10.783-11.5s-4.828-11.5-10.783-11.5-10.783 5.149-10.783 11.5z"/></g></svg>